<svg width="500" height="150" viewBox="0 0 500 150" fill="none" xmlns="http://www.w3.org/2000/svg">
<path d="M0 31.0656C0 16.5184 15.1131 6.6656 28.7111 11.8341C49.3754 19.6885 76.4598 28.5151 93.2452 28.2534C123.328 27.7844 138.801 9.11345 168.869 7.70548C198.937 6.29751 225.413 24.5197 250 23.1164C274.587 21.7132 287.573 6.64616 312.041 7.70548C336.509 8.76479 348.601 25.1593 372.981 28.2534C397.36 31.3476 411.943 28.4687 436.49 23.1164C446.863 20.8548 459.809 16.377 471.303 11.9597C484.889 6.73777 500 16.5436 500 31.0993V130C500 141.046 491.046 150 480 150H20C8.95432 150 0 141.046 0 130V31.0656Z" fill="#007BFF"/>
<path d="M25.6824 120.18C22.9224 120.18 20.6724 119.34 18.9324 117.66C17.1924 115.98 16.3224 113.85 16.3224 111.27V63.66C16.3224 61.02 17.1624 58.8 18.8424 57C20.5824 55.2 22.8624 54.3 25.6824 54.3C28.6824 54.3 31.0224 55.2 32.7024 57C34.4424 58.74 35.3124 60.9 35.3124 63.48V111.27C35.3124 113.85 34.3824 115.98 32.5224 117.66C30.7224 119.34 28.4424 120.18 25.6824 120.18ZM49.3875 120C46.7475 120 44.6175 119.22 42.9975 117.66C41.4375 116.04 40.6575 114.06 40.6575 111.72V81.93C40.6575 79.41 41.4075 77.28 42.9075 75.54C44.4075 73.8 46.5675 72.93 49.3875 72.93C52.1475 72.93 54.2475 73.8 55.6875 75.54C57.1275 77.28 57.8475 79.47 57.8475 82.11V86.61H59.4675C59.4675 83.19 60.0675 80.49 61.2675 78.51C62.5275 76.53 64.1175 75.12 66.0375 74.28C67.9575 73.38 69.8775 72.93 71.7975 72.93C76.4175 72.93 79.8075 74.61 81.9675 77.97C84.1275 81.27 85.2075 85.98 85.2075 92.1V111.72C85.2075 114.06 84.4275 116.04 82.8675 117.66C81.3075 119.22 79.2075 120 76.5675 120C73.8675 120 71.7075 119.22 70.0875 117.66C68.5275 116.04 67.7475 114.06 67.7475 111.72V95.79C67.7475 93.63 67.3275 91.95 66.4875 90.75C65.7075 89.55 64.5375 88.95 62.9775 88.95C61.1775 88.95 59.8575 89.61 59.0175 90.93C58.2375 92.25 57.8475 93.93 57.8475 95.97V111.72C57.8475 114.06 57.0975 116.04 55.5975 117.66C54.0975 119.22 52.0275 120 49.3875 120ZM99.6863 120.18C96.9263 120.18 94.6763 119.34 92.9363 117.66C91.1963 115.98 90.3263 113.85 90.3263 111.27V63.66C90.3263 61.02 91.1663 58.8 92.8463 57C94.5863 55.2 96.8663 54.3 99.6863 54.3C102.686 54.3 105.026 55.2 106.706 57C108.446 58.74 109.316 60.9 109.316 63.48V111.27C109.316 113.85 108.386 115.98 106.526 117.66C104.726 119.34 102.446 120.18 99.6863 120.18ZM123.391 120C120.751 120 118.621 119.22 117.001 117.66C115.441 116.04 114.661 114.06 114.661 111.72V81.93C114.661 79.41 115.411 77.28 116.911 75.54C118.411 73.8 120.571 72.93 123.391 72.93C126.151 72.93 128.251 73.8 129.691 75.54C131.131 77.28 131.851 79.47 131.851 82.11V86.61H133.471C133.471 83.19 134.071 80.49 135.271 78.51C136.531 76.53 138.121 75.12 140.041 74.28C141.961 73.38 143.881 72.93 145.801 72.93C150.421 72.93 153.811 74.61 155.971 77.97C158.131 81.27 159.211 85.98 159.211 92.1V111.72C159.211 114.06 158.431 116.04 156.871 117.66C155.311 119.22 153.211 120 150.571 120C147.871 120 145.711 119.22 144.091 117.66C142.531 116.04 141.751 114.06 141.751 111.72V95.79C141.751 93.63 141.331 91.95 140.491 90.75C139.711 89.55 138.541 88.95 136.981 88.95C135.181 88.95 133.861 89.61 133.021 90.93C132.241 92.25 131.851 93.93 131.851 95.97V111.72C131.851 114.06 131.101 116.04 129.601 117.66C128.101 119.22 126.031 120 123.391 120ZM188.222 120.27C185.042 120.27 182.162 119.55 179.582 118.11C177.062 116.67 175.082 114.63 173.642 111.99C172.202 109.29 171.482 106.14 171.482 102.54V86.7L168.152 87.15C166.352 87.39 164.762 86.76 163.382 85.26C162.002 83.76 161.312 81.87 161.312 79.59C161.312 77.31 162.002 75.45 163.382 74.01C164.762 72.51 166.352 71.88 168.152 72.12L171.482 72.57L171.392 66.45C171.332 64.05 172.022 62.16 173.462 60.78C174.902 59.34 177.002 58.62 179.762 58.62C182.522 58.62 184.652 59.34 186.152 60.78C187.652 62.16 188.342 64.05 188.222 66.45L188.042 72.57L192.812 71.94C196.052 71.46 198.512 72.06 200.192 73.74C201.872 75.36 202.712 77.31 202.712 79.59C202.712 81.87 201.872 83.85 200.192 85.53C198.572 87.15 196.202 87.75 193.082 87.33L188.042 86.7V100.11C188.042 100.89 188.312 101.61 188.852 102.27C189.392 102.87 190.052 103.05 190.832 102.81C191.732 102.57 192.662 102.06 193.622 101.28C194.642 100.5 195.932 100.11 197.492 100.11C199.832 100.11 201.632 100.95 202.892 102.63C204.152 104.31 204.782 106.38 204.782 108.84C204.782 110.76 204.092 112.62 202.712 114.42C201.392 116.16 199.502 117.57 197.042 118.65C194.582 119.73 191.642 120.27 188.222 120.27ZM206.411 96.6C206.411 91.86 207.341 87.69 209.201 84.09C211.121 80.49 213.821 77.67 217.301 75.63C220.841 73.59 225.041 72.57 229.901 72.57C233.681 72.57 237.071 73.26 240.071 74.64C243.131 76.02 245.531 77.88 247.271 80.22C249.011 82.5 249.881 85.02 249.881 87.78C249.881 90.66 249.041 92.7 247.361 93.9C245.681 95.1 243.191 95.7 239.891 95.7H220.991C220.991 97.26 221.591 98.55 222.791 99.57C224.051 100.59 226.151 101.1 229.091 101.1C230.591 101.1 231.971 100.95 233.231 100.65C234.551 100.35 235.871 100.08 237.191 99.84C238.571 99.54 240.101 99.39 241.781 99.39C244.181 99.39 246.161 100.26 247.721 102C249.281 103.68 250.061 106.02 250.061 109.02C250.061 112.56 248.231 115.32 244.571 117.3C240.971 119.28 236.231 120.27 230.351 120.27C226.211 120.27 222.311 119.46 218.651 117.84C215.051 116.22 212.111 113.67 209.831 110.19C207.551 106.65 206.411 102.12 206.411 96.6ZM235.571 92.73C236.471 92.73 236.771 92.31 236.471 91.47C236.231 90.63 235.511 89.76 234.311 88.86C233.111 87.96 231.371 87.51 229.091 87.51C226.451 87.51 224.471 88.08 223.151 89.22C221.891 90.36 221.261 91.53 221.261 92.73H235.571ZM263.845 120C261.025 120 258.835 119.19 257.275 117.57C255.715 115.95 254.935 113.91 254.935 111.45V81.93C254.935 79.35 255.715 77.22 257.275 75.54C258.835 73.8 261.025 72.93 263.845 72.93C266.665 72.93 268.825 73.8 270.325 75.54C271.825 77.22 272.575 79.29 272.575 81.75V83.64H274.285C274.525 80.46 275.725 77.85 277.885 75.81C280.045 73.77 282.595 72.75 285.535 72.75C288.475 72.75 290.785 73.65 292.465 75.45C294.205 77.25 295.075 79.65 295.075 82.65C295.075 85.47 294.265 87.81 292.645 89.67C291.025 91.53 288.955 92.46 286.435 92.46C284.335 92.46 282.565 91.98 281.125 91.02C279.745 90 278.725 88.83 278.065 87.51C276.145 87.27 274.735 87.48 273.835 88.14C272.995 88.74 272.575 89.97 272.575 91.83V111.45C272.575 113.91 271.825 115.95 270.325 117.57C268.825 119.19 266.665 120 263.845 120ZM321.753 120C317.853 120 314.523 118.86 311.763 116.58C309.003 114.3 306.723 110.52 304.923 105.24L297.813 84.72C296.853 82.02 296.853 79.53 297.813 77.25C298.833 74.97 300.693 73.53 303.393 72.93C305.793 72.39 307.893 72.63 309.693 73.65C311.553 74.67 312.873 76.38 313.653 78.78L320.673 99.39C321.513 101.79 322.533 103.56 323.733 104.7C324.993 105.84 326.523 106.11 328.323 105.51C330.003 104.85 330.903 103.77 331.023 102.27C331.203 100.71 330.873 98.91 330.033 96.87C329.313 95.01 328.353 93.42 327.153 92.1C325.953 90.78 324.873 89.4 323.913 87.96C322.953 86.52 322.473 84.72 322.473 82.56C322.473 79.44 323.463 77.01 325.443 75.27C327.483 73.47 330.153 72.63 333.453 72.75C336.273 72.81 338.583 73.8 340.383 75.72C342.183 77.64 343.083 80.07 343.083 83.01C343.083 84.63 342.813 86.37 342.273 88.23C341.733 90.09 341.133 92.04 340.473 94.08L336.873 105.42C335.913 108.42 334.833 111.03 333.633 113.25C332.493 115.41 330.993 117.09 329.133 118.29C327.333 119.43 324.873 120 321.753 120ZM346.333 62.49C346.333 59.91 347.113 57.84 348.673 56.28C350.293 54.66 352.513 53.85 355.333 53.85C358.333 53.85 360.553 54.63 361.993 56.19C363.493 57.75 364.243 59.82 364.243 62.4C364.243 64.92 363.493 66.96 361.993 68.52C360.553 70.02 358.333 70.77 355.333 70.77C352.393 70.77 350.143 70.02 348.583 68.52C347.083 66.96 346.333 64.95 346.333 62.49ZM355.333 120C352.513 120 350.413 119.22 349.033 117.66C347.653 116.1 346.963 114.15 346.963 111.81V81.03C346.963 78.45 347.653 76.41 349.033 74.91C350.413 73.41 352.513 72.66 355.333 72.66C358.153 72.66 360.253 73.41 361.633 74.91C363.073 76.41 363.793 78.39 363.793 80.85V111.81C363.793 114.15 363.043 116.1 361.543 117.66C360.103 119.22 358.033 120 355.333 120ZM368.393 96.6C368.393 91.86 369.323 87.69 371.183 84.09C373.103 80.49 375.803 77.67 379.283 75.63C382.823 73.59 387.023 72.57 391.883 72.57C395.663 72.57 399.053 73.26 402.053 74.64C405.113 76.02 407.513 77.88 409.253 80.22C410.993 82.5 411.863 85.02 411.863 87.78C411.863 90.66 411.023 92.7 409.343 93.9C407.663 95.1 405.173 95.7 401.873 95.7H382.973C382.973 97.26 383.573 98.55 384.773 99.57C386.033 100.59 388.133 101.1 391.073 101.1C392.573 101.1 393.953 100.95 395.213 100.65C396.533 100.35 397.853 100.08 399.173 99.84C400.553 99.54 402.083 99.39 403.763 99.39C406.163 99.39 408.143 100.26 409.703 102C411.263 103.68 412.043 106.02 412.043 109.02C412.043 112.56 410.213 115.32 406.553 117.3C402.953 119.28 398.213 120.27 392.333 120.27C388.193 120.27 384.293 119.46 380.633 117.84C377.033 116.22 374.093 113.67 371.813 110.19C369.533 106.65 368.393 102.12 368.393 96.6ZM397.553 92.73C398.453 92.73 398.753 92.31 398.453 91.47C398.213 90.63 397.493 89.76 396.293 88.86C395.093 87.96 393.353 87.51 391.073 87.51C388.433 87.51 386.453 88.08 385.133 89.22C383.873 90.36 383.243 91.53 383.243 92.73H397.553ZM436.037 120C432.557 120 429.707 118.86 427.487 116.58C425.327 114.3 423.347 110.55 421.547 105.33L414.707 84.99C413.927 82.71 413.897 80.4 414.617 78.06C415.337 75.72 416.987 74.13 419.567 73.29C421.967 72.45 424.157 72.51 426.137 73.47C428.117 74.43 429.497 76.08 430.277 78.42L437.657 100.47C438.497 103.05 439.367 104.79 440.267 105.69C441.167 106.53 442.367 106.71 443.867 106.23C445.127 105.81 445.907 104.91 446.207 103.53C446.567 102.09 446.147 99.63 444.947 96.15L441.257 84.99C440.477 82.65 440.447 80.34 441.167 78.06C441.947 75.72 443.627 74.13 446.207 73.29C448.607 72.45 450.797 72.51 452.777 73.47C454.757 74.43 456.137 76.08 456.917 78.42L464.477 101.46C464.957 102.84 465.707 104.1 466.727 105.24C467.747 106.38 469.067 106.71 470.687 106.23C471.947 105.81 472.757 104.97 473.117 103.71C473.537 102.45 473.477 100.98 472.937 99.3C472.217 97.02 471.407 95.22 470.507 93.9C469.667 92.58 468.827 91.44 467.987 90.48C467.207 89.52 466.547 88.5 466.007 87.42C465.527 86.34 465.227 84.87 465.107 83.01C464.987 81.09 465.377 79.41 466.277 77.97C467.237 76.47 468.497 75.3 470.057 74.46C471.677 73.62 473.447 73.2 475.367 73.2C478.307 73.2 480.677 74.19 482.477 76.17C484.337 78.09 485.267 80.37 485.267 83.01C485.267 83.97 485.117 85.23 484.817 86.79C484.517 88.35 484.127 89.79 483.647 91.11L479.867 100.92C479.087 103.08 478.187 105.3 477.167 107.58C476.207 109.8 475.067 111.84 473.747 113.7C472.487 115.56 471.017 117.09 469.337 118.29C467.657 119.43 465.707 120 463.487 120C459.647 120 456.557 119.01 454.217 117.03C451.937 115.05 450.137 111.78 448.817 107.22H447.917C447.137 110.94 445.847 114 444.047 116.4C442.247 118.8 439.577 120 436.037 120Z" fill="white"/>
</svg>
